<?xml version="1.0" encoding="utf-8"?>
<!-- Generator: Adobe Illustrator 19.1.0, SVG Export Plug-In . SVG Version: 6.00 Build 0)  -->
<svg version="1.1" xmlns="http://www.w3.org/2000/svg" xmlns:xlink="http://www.w3.org/1999/xlink" x="0px" y="0px"
	 viewBox="48 -48 128 128" style="enable-background:new 48 -48 128 128;" xml:space="preserve">
<style type="text/css">
	.st0{display:none;}
	.st1{display:inline;fill:#405660;}
	.st2{fill:#405660;}
</style>
<g id="Layer_1" class="st0">
	<path class="st1" d="M112-48v4h12l-2,2l20,8l-2,2l12,4l-4,2l6,6h-4l4,28c2.7,4,4,8.7,4,14s-1.7,10-5,14l-9,24c-4,8-20,20-32,20
		S84,68,80,60l-9-24c-3.3-4-5-8.7-5-14s1.3-10,4-14v-34l4,2l8-12l2,4L112-48z M120-8c-10.7-6.7-21.3-10-32-10
		c-5.3,2.7-8.7,8.7-10,18l0,0l-2,26c0,7,9,28,10,30c8,14,24,17,26,17s18-3,26-17c1-2,10-23,10-30l-1-22l-5-12l-2,2l-8-4v4l-10-6
		 M92,14c-3,0-5.5,2.5-5.5,5.5S89,25,92,25s5.5-2.5,5.5-5.5S95,14,92,14 M132,14c-3,0-5.5,2.5-5.5,5.5S129,25,132,25
		s5.5-2.5,5.5-5.5S135,14,132,14 M105,40h14c1.1,0,2,0.9,2,2s-0.9,2-2,2h-14c-1.1,0-2-0.9-2-2S103.9,40,105,40 M101,56h22
		c1.1,0,2,0.9,2,2s-0.9,2-2,2h-22c-1.1,0-2-0.9-2-2S99.9,56,101,56 M81.3,12.4c1.3-2.6,3.7-4.5,6.4-5.2C91,6.4,94.8,7.3,98.4,10
		c0.9,0.6,2.1,0.4,2.8-0.5c0.6-0.9,0.4-2.1-0.5-2.8c-5.9-4.2-10.9-4.2-14-3.4c-3.9,1-7.2,3.6-9,7.3c-0.5,1-0.1,2.2,0.9,2.7
		c0.3,0.1,0.6,0.2,0.9,0.2C80.2,13.5,80.9,13.1,81.3,12.4z M145.7,13.9c0.8-0.7,0.9-2,0.2-2.8c-3.6-4.1-7.8-6.2-12.5-6.1
		c-3.4,0-7.1,1.2-11.1,3.6c-1,0.6-1.3,1.8-0.7,2.7c0.6,1,1.8,1.3,2.7,0.7c3.4-2,6.4-3,9.2-3c3.5,0,6.6,1.5,9.5,4.7
		c0.4,0.5,0.9,0.7,1.5,0.7C144.8,14.4,145.3,14.2,145.7,13.9z"/>
</g>
<g id="Layer_1_copy">
	<path class="st2" d="M112-48v4h12l-2,2l20,8l-2,2l12,4l-4,2l6,6h-4l4,28c2.7,4,4,8.7,4,14s-1.7,10-5,14l-9,24c-4,8-20,20-32,20
		S84,68,80,60l-9-24c-3.3-4-5-8.7-5-14s1.3-10,4-14v-34l4,2l8-12l2,4L112-48z M120-8c-10.7-6.7-21.3-10-32-10
		c-5.3,2.7-8.7,8.7-10,18l0,0l-2,26c0,7,9,28,10,30c8,14,24,17,26,17s18-3,26-17c1-2,10-23,10-30l-1-22l-5-12l-2,2l-8-4v4l-10-6
		 M92,14c-3,0-5.5,2.5-5.5,5.5S89,25,92,25s5.5-2.5,5.5-5.5S95,14,92,14 M132,14c-3,0-5.5,2.5-5.5,5.5S129,25,132,25
		s5.5-2.5,5.5-5.5S135,14,132,14 M105,40h14c1.1,0,2,0.9,2,2s-0.9,2-2,2h-14c-1.1,0-2-0.9-2-2S103.9,40,105,40 M101,56h22
		c1.1,0,2,0.9,2,2s-0.9,2-2,2h-22c-1.1,0-2-0.9-2-2S99.9,56,101,56 M81.3,12.4c1.3-2.6,3.7-4.5,6.4-5.2C91,6.4,94.8,7.3,98.4,10
		c0.9,0.6,2.1,0.4,2.8-0.5c0.6-0.9,0.4-2.1-0.5-2.8c-5.9-4.2-10.9-4.2-14-3.4c-3.9,1-7.2,3.6-9,7.3c-0.5,1-0.1,2.2,0.9,2.7
		c0.3,0.1,0.6,0.2,0.9,0.2C80.2,13.5,80.9,13.1,81.3,12.4z M145.7,13.9c0.8-0.7,0.9-2,0.2-2.8c-3.6-4.1-7.8-6.2-12.5-6.1
		c-3.4,0-7.1,1.2-11.1,3.6c-1,0.6-1.3,1.8-0.7,2.7c0.6,1,1.8,1.3,2.7,0.7c3.4-2,6.4-3,9.2-3c3.5,0,6.6,1.5,9.5,4.7
		c0.4,0.5,0.9,0.7,1.5,0.7C144.8,14.4,145.3,14.2,145.7,13.9z"/>
</g>
</svg>
