<svg xmlns="http://www.w3.org/2000/svg" viewBox="0 0 128 128">
  <path fill="#f30" 
    d=" M103,67.5c0-5.124-1.607-9.495-3.866-11.216c-0.322-4.406-0.616-8.172-0.644-8.518l-0.023,0.001 C97.24,39.151,97.03,35.653,96.125,33H98.5L94,28.5l3-1.5l-10.5-4.5L88,21l-16.5-6l1.5-1.5h-9v-3l-22.5,12l-1.5-3L32.5,30l-3-1.5 v19.383c-0.058,0.741-0.335,4.293-0.635,8.401C26.606,58.005,25,62.377,25,67.5c0,5.704,1.99,10.474,4.657,11.693 c2.133,7.292,5.789,15.905,7.659,19.647c1.75,3.5,5.776,7.575,10.77,10.905C51.31,111.896,57.663,115.5,64,115.5 c6.337,0,12.689-3.604,15.914-5.754c4.993-3.33,9.02-7.405,10.77-10.905c1.87-3.742,5.526-12.355,7.658-19.647 C101.01,77.974,103,73.203,103,67.5z M85.316,96.158C82.803,101.185,71.801,109.5,64,109.5s-18.804-8.315-21.316-13.342 C39.622,90.036,34,75.643,34,70.5c0-2.269,0.788-13.081,1.275-19.472C36.684,45.362,39.259,37.307,43,34.5c7.5-1.5,28.5,9,28.5,9 l1.5-3l9,4.5v-3l6,3l1.5-1.5c0,0,1.854,4.638,3.375,9.536C93.359,59.469,94,68.454,94,70.5C94,75.643,88.377,90.036,85.316,96.158 z M58,85.5h12c0.828,0,1.5-0.672,1.5-1.5s-0.672-1.5-1.5-1.5H58c-0.828,0-1.5,0.672-1.5,1.5 S57.172,85.5,58,85.5z M73,96H55c-0.828,0-1.5,0.672-1.5,1.5S54.172,99,55,99h18c0.828,0,1.5-0.672,1.5-1.5S73.828,96,73,96z M54.592,58.028c0.567-0.604,0.539-1.553-0.063-2.121c-2.437-2.293-5.186-3.407-8.403-3.407 c-4.586,0-8.104,2.29-10.455,6.807c-0.383,0.734-0.098,1.641,0.637,2.023c0.221,0.115,0.458,0.169,0.691,0.169 c0.542,0,1.065-0.294,1.332-0.808c1.844-3.542,4.321-5.192,7.795-5.192c2.451,0,4.467,0.823,6.346,2.592 C53.075,58.659,54.025,58.631,54.592,58.028z M92.014,58.893c-3.002-2.749-6.411-4.143-10.139-4.143c-3.391,0-6.553,1.355-8.229,2.517 c-0.682,0.472-0.852,1.406-0.38,2.087s1.406,0.852,2.087,0.379c1.426-0.987,3.996-1.983,6.521-1.983 c2.994,0,5.646,1.096,8.111,3.356C90.274,61.37,90.638,61.5,91,61.5c0.405,0,0.81-0.164,1.105-0.487 C92.665,60.403,92.624,59.453,92.014,58.893z M43 66 A4.5 4.5 0 0 0 52 66 A4.5 4.5 0 0 0 43 66z M76 66 A4.5 4.5 0 0 0 85 66 A4.5 4.5 0 0 0 76 66z "/>
</svg>
