<?xml version="1.0" encoding="utf-8"?>
<!-- Generator: Adobe Illustrator 19.1.0, SVG Export Plug-In . SVG Version: 6.00 Build 0)  -->
<svg version="1.1" xmlns="http://www.w3.org/2000/svg" xmlns:xlink="http://www.w3.org/1999/xlink" x="0px" y="0px"
	 viewBox="32 -64 160 160" style="enable-background:new 32 -64 160 160;" xml:space="preserve">
<style type="text/css">
	.st0{display:none;}
	.st1{display:inline;fill:#405660;}
	.st2{display:inline;}
	.st3{fill:#405660;}
	.st4{display:inline;fill:none;stroke:#405660;stroke-width:3;stroke-linecap:round;stroke-miterlimit:10;}
	.st5{fill:#332E17;}
	.st6{fill:#769E30;}
	.st7{fill:#C1B68A;}
	.st8{fill:#AFA477;}
	.st9{fill:#D8CC93;}
	.st10{fill:#E8DA97;}
	.st11{fill:#F2E7A0;}
	.st12{fill:#D8CA88;}
	.st13{fill:#EAE0AC;}
</style>
<g id="Layer_1" class="st0">
	<path class="st1" d="M112-48v4h12l-2,2l20,8l-2,2l12,4l-4,2l6,6h-4l4,28c2.7,4,4,8.7,4,14s-1.7,10-5,14l-9,24c-4,8-20,20-32,20
		S84,68,80,60l-9-24c-3.3-4-5-8.7-5-14s1.3-10,4-14v-34l4,2l8-12l2,4L112-48z M120-8c-10.7-6.7-21.3-10-32-10
		c-5.3,2.7-8.7,8.7-10,18l0,0l-2,26c0,7,9,28,10,30c8,14,24,17,26,17s18-3,26-17c1-2,10-23,10-30l-1-22l-5-12l-2,2l-8-4v4l-10-6
		 M92,14c-3,0-5.5,2.5-5.5,5.5S89,25,92,25s5.5-2.5,5.5-5.5S95,14,92,14 M132,14c-3,0-5.5,2.5-5.5,5.5S129,25,132,25
		s5.5-2.5,5.5-5.5S135,14,132,14 M105,40h14c1.1,0,2,0.9,2,2s-0.9,2-2,2h-14c-1.1,0-2-0.9-2-2S103.9,40,105,40 M101,56h22
		c1.1,0,2,0.9,2,2s-0.9,2-2,2h-22c-1.1,0-2-0.9-2-2S99.9,56,101,56 M81.3,12.4c1.3-2.6,3.7-4.5,6.4-5.2C91,6.4,94.8,7.3,98.4,10
		c0.9,0.6,2.1,0.4,2.8-0.5c0.6-0.9,0.4-2.1-0.5-2.8c-5.9-4.2-10.9-4.2-14-3.4c-3.9,1-7.2,3.6-9,7.3c-0.5,1-0.1,2.2,0.9,2.7
		c0.3,0.1,0.6,0.2,0.9,0.2C80.2,13.5,80.9,13.1,81.3,12.4z M145.7,13.9c0.8-0.7,0.9-2,0.2-2.8c-3.6-4.1-7.8-6.2-12.5-6.1
		c-3.4,0-7.1,1.2-11.1,3.6c-1,0.6-1.3,1.8-0.7,2.7c0.6,1,1.8,1.3,2.7,0.7c3.4-2,6.4-3,9.2-3c3.5,0,6.6,1.5,9.5,4.7
		c0.4,0.5,0.9,0.7,1.5,0.7C144.8,14.4,145.3,14.2,145.7,13.9z"/>
</g>
<g id="Layer_1_copy" class="st0">
	<g class="st2">
		<path class="st3" d="M112-4l20,30H92L112-4 M112-11.2l-3.3,5l-20,30L84.5,30H92h40h7.5l-4.1-6.2l-20-30L112-11.2L112-11.2z"/>
	</g>
	<path class="st1" d="M112-48v4h12l-2,2l20,8l-2,2l12,4l-4,2l6,6h-4l4,28c2.7,4,4,8.7,4,14s-1.7,10-5,14l-9,24c-4,8-20,20-32,20
		S84,68,80,60l-9-24c-3.3-4-5-8.7-5-14s1.3-10,4-14v-34l4,2l8-12l2,4L112-48z M120-8c-10.7-6.7-21.3-10-32-10
		c-5.3,2.7-8.7,8.7-10,18l0,0l-2,26c0,7,9,28,10,30c8,14,24,17,26,17s18-3,26-17c1-2,10-23,10-30l-1-22l-5-12l-2,2l-8-4v4l-10-6
		 M105,40h14c1.1,0,2,0.9,2,2s-0.9,2-2,2h-14c-1.1,0-2-0.9-2-2S103.9,40,105,40 M101,56h22c1.1,0,2,0.9,2,2s-0.9,2-2,2h-22
		c-1.1,0-2-0.9-2-2S99.9,56,101,56"/>
	<path class="st1" d="M112,12c-3.3,0-6,0.7-6,4s2.7,6,6,6s6-2.7,6-6S115.3,12,112,12"/>
	<path class="st4" d="M100,18c1-1.1,4.3-6,12-6s11,4.9,12,6"/>
</g>
<g id="Layer_1_copy_2">
	<path class="st5" d="M105,40h14c1.1,0,2,0.9,2,2s-0.9,2-2,2h-14c-1.1,0-2-0.9-2-2S103.9,40,105,40"/>
	<path class="st5" d="M101,56h22c1.1,0,2,0.9,2,2s-0.9,2-2,2h-22c-1.1,0-2-0.9-2-2S99.9,56,101,56"/>
	<path class="st6" d="M120-8c-10.7-6.7-21.3-10-32-10c-5.3,2.7-8.7,8.7-10,18l0,0l-2,26c0,7,9,28,10,30c8,14,24,17,26,17s18-3,26-17
		c1-2,10-23,10-30l-1-22l-5-12l-2,2l-8-4v4l-10-6"/>
	<g>
		<polygon class="st7" points="96.3,71.6 87.1,60.6 136.5,64.4 115.9,77.5 		"/>
		<path class="st8" d="M88.3,61.2l46.6,3.6l-19.1,12.1l-19.3-5.8L88.3,61.2 M86,60l10,12l20,6l22-14L86,60L86,60z"/>
	</g>
	<g>
		<polygon class="st9" points="84.4,61.5 78.7,46.5 145.2,46.5 133.7,67.5 		"/>
		<path class="st8" d="M144.3,47l-10.9,19.9l-48.7-5.8L79.4,47H144.3 M146,46H78l6,16l50,6L146,46L146,46z"/>
	</g>
	<g>
		<polygon class="st10" points="74.7,34.5 149.2,36.5 143.7,47.5 82.3,53.5 		"/>
		<path class="st8" d="M75.5,35l72.9,1.9l-5,10.1l-60.7,5.9L75.5,35 M74,34l8,20l62-6l6-12L74,34L74,34z"/>
	</g>
	<g>
		<polygon class="st11" points="74.8,-4.4 86.2,-23.4 149.5,-9.6 149.5,1.5 		"/>
		<path class="st8" d="M86.5-22.9L149-9.2V0.9L75.7-4.9L86.5-22.9 M86-24L74-4l76,6v-12L86-24L86-24z"/>
	</g>
	<g>
		<polygon class="st11" points="74.5,35.5 74.5,18.5 149.5,24.5 149.5,39.5 		"/>
		<path class="st8" d="M75,19.1l74,5.8v14l-74-3.9V19.1 M74,18v18l76,4V24L74,18L74,18z"/>
	</g>
	<g>
		<polygon class="st12" points="74.5,6.5 149.5,2.5 149.5,17.5 74.5,21.5 		"/>
		<path class="st8" d="M149,3.1v14l-74,3.9v-14L149,3.1 M150,2L74,6v16l76-4V2L150,2z"/>
	</g>
	<g>
		<polygon class="st13" points="76.4,-9.4 149.5,-1.6 149.5,5.5 74.6,7.5 		"/>
		<path class="st8" d="M76.9-8.9L149-1.1V5L75.1,7L76.9-8.9 M76-10L74,8l76-2v-8L76-10L76-10z"/>
	</g>
	<path class="st5" d="M112-48v4h12l-2,2l20,8l-2,2l12,4l-4,2l6,6h-4l4,28c2.7,4,4,8.7,4,14s-1.7,10-5,14l-9,24c-4,8-20,20-32,20
		S84,68,80,60l-9-24c-3.3-4-5-8.7-5-14s1.3-10,4-14v-34l4,2l8-12l2,4L112-48z M120-8c-10.7-6.7-21.3-10-32-10
		c-5.3,2.7-8.7,8.7-10,18l0,0l-2,26c0,7,9,28,10,30c8,14,24,17,26,17s18-3,26-17c1-2,10-23,10-30l-1-22l-5-12l-2,2l-8-4v4l-10-6"/>
</g>
</svg>
